<svg xmlns="http://www.w3.org/2000/svg" xmlns:xlink="http://www.w3.org/1999/xlink" viewBox="0,0,256,256" width="50px" height="50px" fill-rule="nonzero"><g fill="#222222" fill-rule="nonzero" stroke="none" stroke-width="1" stroke-linecap="butt" stroke-linejoin="miter" stroke-miterlimit="10" stroke-dasharray="" stroke-dashoffset="0" font-family="none" font-weight="none" font-size="none" text-anchor="none" style="mix-blend-mode: normal"><g transform="scale(5.12,5.12)"><path d="M25,3c-8.27344,0 -15,6.72656 -15,15c0,5.05859 1.92969,8.06641 3.75,10.15625c0.91016,1.04688 1.78906,1.89063 2.375,2.65625c0.58594,0.76563 0.875,1.38281 0.875,2.1875v10c0,1.64453 1.35547,3 3,3h1.15625c0.44531,1.71875 1.99219,3 3.84375,3c1.85156,0 3.39844,-1.28125 3.84375,-3h1.15625c1.64453,0 3,-1.35547 3,-3v-10c0,-1.12891 0.33203,-1.91016 0.90625,-2.71875c0.57422,-0.80859 1.4375,-1.61328 2.34375,-2.59375c1.80859,-1.96484 3.75,-4.72266 3.75,-9.6875c0,-8.27344 -6.72656,-15 -15,-15zM25,5c7.19141,0 13,5.80859 13,13c0,4.46875 -1.55859,6.51172 -3.25,8.34375c-0.84375,0.91797 -1.73047,1.74609 -2.46875,2.78125c-0.73828,1.03516 -1.28125,2.3125 -1.28125,3.875v5h-12v-5c0,-1.34766 -0.58594,-2.46094 -1.3125,-3.40625c-0.72656,-0.94531 -1.59766,-1.78906 -2.4375,-2.75c-1.67969,-1.92578 -3.25,-4.26953 -3.25,-8.84375c0,-7.19141 5.80859,-13 13,-13zM20.90625,17.96875c-0.04297,0.00781 -0.08594,0.01953 -0.125,0.03125c-0.375,0.06641 -0.67578,0.33984 -0.78125,0.70313c-0.10547,0.36719 0.00391,0.75781 0.28125,1.01563l3.71875,3.71875v12.5625h2v-12.5625l3.71875,-3.71875c0.39844,-0.39844 0.39844,-1.03906 0,-1.4375c-0.39844,-0.39844 -1.03906,-0.39844 -1.4375,0l-3.28125,3.28125l-3.28125,-3.28125c-0.20703,-0.22266 -0.50781,-0.33594 -0.8125,-0.3125zM19,40h12v3c0,0.55469 -0.44531,1 -1,1h-7.8125c-0.13281,-0.02734 -0.27344,-0.02734 -0.40625,0h-1.78125c-0.55469,0 -1,-0.44531 -1,-1zM23.28125,46h3.4375c-0.34375,0.59766 -0.97266,1 -1.71875,1c-0.74609,0 -1.375,-0.40234 -1.71875,-1z"></path></g></g></svg>