<svg xmlns="http://www.w3.org/2000/svg" xmlns:xlink="http://www.w3.org/1999/xlink" viewBox="0,0,256,256" width="64px" height="64px" fill-rule="nonzero"><g fill="#222222" fill-rule="nonzero" stroke="none" stroke-width="1" stroke-linecap="butt" stroke-linejoin="miter" stroke-miterlimit="10" stroke-dasharray="" stroke-dashoffset="0" font-family="none" font-weight="none" font-size="none" text-anchor="none" style="mix-blend-mode: normal"><g transform="scale(8,8)"><path d="M27,3.78125l-1.1875,0.25l-16,3l-0.8125,0.125v13.40625c-0.59375,-0.34766 -1.26562,-0.5625 -2,-0.5625c-2.19922,0 -4,1.80078 -4,4c0,2.19922 1.80078,4 4,4c2.19922,0 4,-1.80078 4,-4v-11.1875l14,-2.625v7.375c-0.59375,-0.34766 -1.26562,-0.5625 -2,-0.5625c-2.19922,0 -4,1.80078 -4,4c0,2.19922 1.80078,4 4,4c2.19922,0 4,-1.80078 4,-4zM25,6.1875v2l-14,2.625v-2zM23,19c1.11719,0 2,0.88281 2,2c0,1.11719 -0.88281,2 -2,2c-1.11719,0 -2,-0.88281 -2,-2c0,-1.11719 0.88281,-2 2,-2zM7,22c1.11719,0 2,0.88281 2,2c0,1.11719 -0.88281,2 -2,2c-1.11719,0 -2,-0.88281 -2,-2c0,-1.11719 0.88281,-2 2,-2z"></path></g></g></svg>